<?xml version="1.0" encoding="UTF-8"?>
<svg xmlns="http://www.w3.org/2000/svg" xmlns:xlink="http://www.w3.org/1999/xlink" width="200px" height="30px" viewBox="0 0 199 30" version="1.1">
<g id="surface1">
<path style=" stroke:none;fill-rule:nonzero;fill:rgb(100%,100%,100%);fill-opacity:1;" d="M 0 0 L 29.921875 0 L 29.921875 30 L 0 30 Z M 0 0 "/>
<path style=" stroke:none;fill-rule:nonzero;fill:rgb(92.54902%,14.117647%,15.686275%);fill-opacity:1;" d="M 19.945312 5.667969 L 4.035156 5.667969 L 11.066406 15 L 26.988281 15 L 19.945312 5.667969 "/>
<path style=" stroke:none;fill-rule:nonzero;fill:rgb(46.27451%,6.666667%,10.980392%);fill-opacity:1;" d="M 26.988281 15 L 11.078125 15 L 4.046875 24.335938 L 19.953125 24.335938 L 26.992188 15 "/>
<path style=" stroke:none;fill-rule:nonzero;fill:rgb(100%,100%,100%);fill-opacity:1;" d="M 105.386719 14.800781 C 106.808594 13.972656 107.679688 12.445312 107.675781 10.800781 C 107.675781 7.390625 105.355469 5.277344 101.621094 5.277344 L 93.78125 5.277344 L 93.78125 24.816406 L 101.949219 24.816406 C 105.648438 24.816406 107.945312 22.648438 107.945312 19.15625 C 108.035156 17.324219 107.03125 15.613281 105.390625 14.804688 M 97.714844 8.820312 L 101.324219 8.820312 C 102.839844 8.820312 103.738281 9.621094 103.738281 10.972656 C 103.738281 12.320312 102.839844 13.117188 101.324219 13.117188 L 97.714844 13.117188 Z M 101.566406 21.28125 L 97.714844 21.28125 L 97.714844 16.683594 L 101.570312 16.683594 C 102.421875 16.632812 103.234375 17.058594 103.675781 17.789062 C 104.121094 18.523438 104.121094 19.441406 103.675781 20.175781 C 103.234375 20.90625 102.421875 21.335938 101.570312 21.28125 Z M 78.46875 17.761719 C 78.316406 17.507812 71.585938 5.238281 71.585938 5.238281 L 67.734375 5.238281 L 67.734375 24.78125 L 71.671875 24.78125 L 71.671875 13.105469 C 71.960938 13.617188 78.460938 24.9375 78.460938 24.9375 L 85.226562 13.109375 L 85.226562 24.78125 L 89.160156 24.78125 L 89.160156 5.234375 L 85.320312 5.234375 C 85.320312 5.234375 78.605469 17.503906 78.46875 17.757812 Z M 62.921875 5.28125 L 58.984375 5.28125 L 58.984375 24.820312 L 62.921875 24.820312 Z M 52.464844 20.113281 C 49.824219 22.214844 46.015625 21.925781 43.722656 19.445312 C 41.429688 16.964844 41.429688 13.132812 43.722656 10.65625 C 46.015625 8.175781 49.824219 7.882812 52.464844 9.988281 L 52.527344 10.03125 L 55.269531 7.285156 L 55.199219 7.226562 C 53.332031 5.601562 50.941406 4.707031 48.464844 4.707031 C 43.882812 4.691406 39.835938 7.714844 38.535156 12.121094 C 37.238281 16.53125 38.992188 21.269531 42.847656 23.757812 C 46.703125 26.246094 51.734375 25.886719 55.199219 22.875 L 55.265625 22.816406 L 52.523438 20.070312 Z M 52.464844 20.113281 "/>
<path style=" stroke:none;fill-rule:nonzero;fill:rgb(100%,100%,100%);fill-opacity:1;" d="M 147.453125 17.261719 L 153.960938 17.261719 L 150.761719 7.8125 L 150.707031 7.8125 L 147.453125 17.261719 M 149.363281 5.375 L 152.1875 5.375 L 158.964844 24.746094 L 156.613281 24.746094 L 154.765625 19.53125 L 146.652344 19.53125 L 144.878906 24.871094 L 142.242188 24.871094 L 149.363281 5.371094 "/>
<path style=" stroke:none;fill-rule:nonzero;fill:rgb(100%,100%,100%);fill-opacity:1;" d="M 186.746094 17.261719 L 193.25 17.261719 L 190.050781 7.8125 L 189.996094 7.8125 L 186.742188 17.261719 M 188.648438 5.375 L 191.472656 5.375 L 198.25 24.746094 L 195.898438 24.746094 L 194.054688 19.53125 L 185.933594 19.53125 L 184.164062 24.871094 L 181.53125 24.871094 L 188.648438 5.371094 "/>
<path style=" stroke:none;fill-rule:nonzero;fill:rgb(100%,100%,100%);fill-opacity:1;" d="M 177.789062 7.902344 C 177.789062 7.902344 170.460938 2.074219 163.894531 8.28125 C 161.878906 10.421875 160.867188 13.324219 161.117188 16.261719 C 161.257812 18.800781 162.40625 21.175781 164.304688 22.867188 C 166.199219 24.554688 168.691406 25.417969 171.222656 25.261719 C 173.640625 25.09375 176.003906 24.445312 178.171875 23.359375 L 178.171875 14.113281 L 171.726562 14.113281 L 171.726562 15.886719 L 176.273438 15.886719 L 176.273438 21.964844 C 176.273438 21.964844 169.578125 25.132812 165.789062 21.332031 C 165.789062 21.332031 162.757812 19.679688 163.394531 13.980469 C 163.394531 13.980469 164.660156 7.058594 171.648438 7.480469 C 171.648438 7.480469 175.441406 7.945312 176.449219 9.59375 L 177.796875 7.902344 "/>
<path style=" stroke:none;fill-rule:nonzero;fill:rgb(100%,100%,100%);fill-opacity:1;" d="M 136.984375 5.238281 L 139.007812 5.238281 L 139.007812 24.746094 L 136.984375 24.746094 Z M 136.984375 5.238281 "/>
<path style=" stroke:none;fill-rule:nonzero;fill:rgb(100%,100%,100%);fill-opacity:1;" d="M 129.785156 5.238281 L 129.785156 21.207031 L 118.164062 5.238281 L 116.144531 5.238281 L 116.144531 24.738281 L 118.164062 24.738281 L 118.164062 8.71875 L 129.785156 24.738281 L 131.808594 24.738281 L 131.808594 5.238281 L 129.785156 5.238281 "/>
</g>
</svg>
