<svg xmlns="http://www.w3.org/2000/svg" xmlns:xlink="http://www.w3.org/1999/xlink" width="1080" zoomAndPan="magnify" viewBox="0 0 810 809.999993" height="1080" preserveAspectRatio="xMidYMid meet" version="1.0"><defs><clipPath id="ff6c83d143"><path d="M 260.589844 307.316406 L 561.339844 307.316406 L 561.339844 609 L 260.589844 609 Z M 260.589844 307.316406 " clip-rule="nonzero"/></clipPath></defs><g clip-path="url(#ff6c83d143)"><path fill="#790008" d="M 260.597656 307.316406 L 561.40625 307.316406 C 561.40625 407.605469 561.40625 507.894531 561.386719 608.183594 C 461.125 608.199219 360.859375 608.183594 260.597656 608.199219 L 260.597656 307.316406 M 300.660156 363.796875 C 324.070312 395.152344 347.828125 426.230469 371.34375 457.496094 C 348.027344 488.882812 324.125 519.835938 300.769531 551.210938 C 354.160156 551.429688 407.53125 551.210938 460.921875 551.320312 C 484.953125 520.21875 508.105469 488.449219 532.296875 457.457031 L 531.84375 457.476562 C 508.269531 426.214844 484.585938 395.023438 461.050781 363.761719 C 407.585938 363.796875 354.125 363.707031 300.660156 363.796875 Z M 300.660156 363.796875 " fill-opacity="1" fill-rule="nonzero"/></g><path fill="#ffffff" d="M 300.660156 363.796875 C 354.125 363.707031 407.585938 363.796875 461.050781 363.761719 C 484.585938 395.023438 508.269531 426.214844 531.84375 457.476562 C 478.34375 457.585938 424.84375 457.53125 371.34375 457.496094 C 347.828125 426.230469 324.070312 395.152344 300.660156 363.796875 Z M 300.660156 363.796875 " fill-opacity="1" fill-rule="nonzero"/><path fill="#ed3024" d="M 371.34375 457.496094 C 424.84375 457.53125 478.34375 457.585938 531.84375 457.476562 L 532.296875 457.457031 C 508.105469 488.449219 484.953125 520.21875 460.921875 551.320312 C 407.53125 551.210938 354.160156 551.429688 300.769531 551.210938 C 324.125 519.835938 348.027344 488.882812 371.34375 457.496094 Z M 371.34375 457.496094 " fill-opacity="1" fill-rule="nonzero"/></svg>